<svg width="400" height="400" viewBox="0 0 400 400" fill="none" xmlns="http://www.w3.org/2000/svg">
<rect width="400" height="400" fill="#454545"/>
<g id="Linarc- Logo">
<path d="M-81 -548C-81 -565.673 -66.6731 -580 -49 -580H1052C1069.67 -580 1084 -565.673 1084 -548V503C1084 520.673 1069.67 535 1052 535H-49C-66.6731 535 -81 520.673 -81 503V-548Z" fill="#CBCBCB"/>
<g id="Primary Logo">
<g id="Group 37">
<path id="Vector" fill-rule="evenodd" clip-rule="evenodd" d="M196.959 103.638V103.658C196.767 104.921 196.585 106.174 196.403 107.436L193.662 125.912L192.985 130.801C192.873 131.67 192.813 132.579 192.762 133.478C192.701 134.367 192.651 135.236 192.55 136.034C192.317 139.69 192.378 143.347 192.742 146.964C193.086 150.903 193.976 154.762 195.381 158.429C196.898 162.611 199.335 166.379 202.521 169.48C205.848 172.621 209.953 174.874 214.494 176.036C218.357 176.975 222.371 177.319 226.396 177.056C229.187 176.884 231.806 176.652 234.334 176.42C238.228 176.076 241.919 175.743 245.772 175.662C251.253 175.581 256.703 175.914 262.083 176.672C262.285 176.712 262.498 176.672 262.68 176.581C262.862 176.49 263.013 176.329 263.104 176.147C263.195 175.965 263.216 175.753 263.175 175.561C263.125 175.369 263.013 175.197 262.852 175.076C258.331 171.52 253.204 168.752 247.683 166.864C244.427 165.722 241.09 164.803 237.682 164.116L228.065 162.298C225.537 161.833 223.1 161.045 220.824 159.944C219.216 159.126 217.841 157.934 216.84 156.469C214.656 152.772 213.493 148.549 213.442 144.196C213.29 141.569 213.27 138.791 213.29 135.963L213.836 126.902C214.201 120.275 214.079 113.659 213.452 107.103C212.896 100.446 211.703 93.8903 209.882 87.5062C208.315 81.819 205.949 76.4046 202.854 71.4145C202.743 71.2832 202.591 71.1821 202.419 71.1316C202.248 71.0811 202.066 71.0811 201.884 71.1316C201.712 71.1821 201.55 71.2832 201.418 71.4145C201.297 71.5458 201.206 71.7175 201.176 71.8892C199.992 82.9706 198.466 93.3044 196.949 103.669L196.959 103.638ZM299.267 240.806C290.297 234.271 282.146 227.816 273.965 221.341C272.964 220.553 271.963 219.755 270.962 218.967L256.39 207.411L252.517 204.391C251.819 203.865 251.061 203.36 250.322 202.865C249.584 202.38 248.866 201.895 248.229 201.411C245.195 199.39 242.01 197.633 238.703 196.138C235.123 194.471 231.361 193.319 227.498 192.713C223.14 191.946 218.67 192.168 214.403 193.38C210.034 194.683 206.04 197.117 202.773 200.461C200.033 203.33 197.737 206.623 195.958 210.239C194.714 212.734 193.612 215.108 192.54 217.411C190.901 220.947 189.334 224.301 187.483 227.664C184.824 232.432 181.81 236.978 178.473 241.251C178.342 241.402 178.261 241.604 178.251 241.817C178.241 242.029 178.301 242.231 178.412 242.402C178.524 242.574 178.696 242.695 178.888 242.756C179.08 242.817 179.282 242.796 179.464 242.716C184.783 240.574 189.738 237.534 194.127 233.705C196.736 231.463 199.194 229.038 201.489 226.442L207.86 219.048C209.518 217.098 211.42 215.391 213.503 213.967C215.01 212.977 216.719 212.391 218.488 212.25C222.766 212.209 226.993 213.3 230.775 215.421C233.121 216.593 235.518 217.957 237.955 219.391L245.499 224.371C251.03 227.988 256.804 231.17 262.771 233.897C268.788 236.736 275.047 238.968 281.459 240.564C287.152 242.039 292.997 242.685 298.852 242.504C299.024 242.473 299.186 242.392 299.317 242.271C299.449 242.15 299.54 241.988 299.58 241.807C299.621 241.625 299.621 241.443 299.57 241.261C299.52 241.089 299.418 240.928 299.277 240.817L299.267 240.806ZM131.359 229.493C121.611 233.352 111.893 237.2 101.699 241.726C101.527 241.786 101.345 241.796 101.163 241.756C100.981 241.716 100.819 241.625 100.688 241.493C100.556 241.362 100.465 241.2 100.415 241.029C100.374 240.857 100.385 240.675 100.445 240.514C103.226 235.321 106.725 230.553 110.871 226.341C115.482 221.563 120.569 217.24 126.06 213.431C131.43 209.603 137.103 206.179 143.029 203.188L151.159 199.128C153.627 197.724 156.023 196.319 158.218 194.875C161.97 192.653 165.044 189.521 167.157 185.774C167.926 184.167 168.27 182.379 168.169 180.571C167.986 178.036 167.451 175.531 166.581 173.096L163.335 163.833C162.222 160.53 161.343 157.166 160.706 153.772C159.573 148.024 159.411 142.186 160.22 136.478C160.24 136.276 160.331 136.094 160.473 135.953C160.614 135.812 160.807 135.731 161.019 135.721C161.221 135.71 161.434 135.761 161.606 135.872C161.777 135.983 161.919 136.155 161.99 136.347C164.033 141.398 166.48 146.307 169.291 151.024C171.293 154.338 173.427 157.378 175.682 160.59C177.148 162.671 178.655 164.833 180.212 167.167C182.468 170.53 184.187 174.197 185.299 178.026C186.573 182.541 186.684 187.248 185.623 191.703C184.531 196.027 182.488 200.027 179.626 203.441C177.159 206.492 174.256 209.199 171.01 211.472C168.057 213.593 164.922 215.482 161.636 217.108C160.888 217.421 160.109 217.805 159.31 218.199C158.501 218.603 157.682 219.007 156.873 219.341L152.302 221.199L134.919 228.068C133.725 228.543 132.532 229.008 131.349 229.483L131.359 229.493Z" fill="#F97316"/>
<g id="Group 33">
<path id="Vector_2" d="M124.577 291.295V298.693H100.391V258.763H109.703V291.295H124.581H124.577Z" fill="white"/>
<path id="Vector_3" d="M140.234 298.693H130.273V258.763H140.234V298.689V298.693Z" fill="white"/>
<path id="Vector_4" d="M180.785 258.763V298.693H175.964C175.252 298.693 174.647 298.583 174.156 298.362C173.682 298.126 173.208 297.722 172.733 297.154L153.905 273.339C153.979 274.054 154.024 274.747 154.04 275.421C154.077 276.078 154.093 276.698 154.093 277.285V298.689H145.926V258.763H150.805C151.206 258.763 151.545 258.78 151.819 258.816C152.093 258.853 152.339 258.926 152.559 259.037C152.78 259.126 152.989 259.265 153.189 259.449C153.39 259.632 153.619 259.877 153.876 260.187L172.868 284.166C172.778 283.398 172.713 282.66 172.676 281.946C172.639 281.215 172.623 280.53 172.623 279.889V258.763H180.79H180.785Z" fill="white"/>
<path id="Vector_5" d="M210.388 283.423L206.737 272.487C206.467 271.793 206.181 270.981 205.874 270.046C205.568 269.096 205.261 268.071 204.954 266.978C204.684 268.092 204.394 269.124 204.087 270.075C203.78 271.026 203.494 271.846 203.224 272.54L199.601 283.419H210.388V283.423ZM224.902 298.689H217.819C217.024 298.689 216.387 298.505 215.899 298.142C215.41 297.758 215.043 297.273 214.789 296.689L212.466 289.728H197.491L195.168 296.689C194.97 297.199 194.611 297.669 194.087 298.089C193.583 298.493 192.953 298.693 192.195 298.693H185.059L200.303 258.763H209.654L224.898 298.693L224.902 298.689Z" fill="white"/>
<path id="Vector_6" d="M242.188 277.537C243.45 277.537 244.524 277.382 245.401 277.071C246.298 276.741 247.031 276.296 247.597 275.729C248.166 275.162 248.576 274.505 248.834 273.754C249.088 272.987 249.219 272.163 249.219 271.29C249.219 269.535 248.641 268.164 247.49 267.181C246.355 266.193 244.589 265.7 242.192 265.7H238.46V277.537H242.192H242.188ZM261.9 298.693H253.497C251.94 298.693 250.825 298.109 250.149 296.938L243.504 285.346C243.192 284.853 242.844 284.498 242.459 284.277C242.074 284.041 241.525 283.922 240.812 283.922H238.452V298.693H229.171V258.763H242.184C245.077 258.763 247.539 259.065 249.572 259.669C251.62 260.252 253.288 261.077 254.57 262.133C255.869 263.194 256.811 264.443 257.397 265.887C257.983 267.332 258.278 268.903 258.278 270.6C258.278 271.898 258.106 273.122 257.758 274.272C257.41 275.423 256.897 276.492 256.221 277.479C255.545 278.446 254.701 279.316 253.693 280.083C252.706 280.85 251.563 281.482 250.26 281.972C250.862 282.282 251.432 282.674 251.964 283.151C252.493 283.608 252.972 284.155 253.39 284.795L261.9 298.689V298.693Z" fill="white"/>
<path id="Vector_7" d="M294.743 288.147C294.959 288.147 295.172 288.191 295.389 288.283C295.605 288.355 295.81 288.487 296.006 288.686L299.609 292.468C298.033 294.524 296.051 296.077 293.667 297.136C291.3 298.174 288.496 298.693 285.254 298.693C282.281 298.693 279.609 298.194 277.242 297.191C274.895 296.173 272.897 294.78 271.248 293.007C269.615 291.218 268.364 289.11 267.485 286.678C266.606 284.23 266.169 281.575 266.169 278.712C266.169 275.849 266.642 273.126 267.593 270.694C268.544 268.246 269.88 266.134 271.597 264.365C273.314 262.596 275.381 261.219 277.78 260.237C280.183 259.254 282.827 258.763 285.712 258.763C287.18 258.763 288.56 258.899 289.852 259.166C291.16 259.418 292.38 259.773 293.507 260.241C294.634 260.688 295.673 261.231 296.624 261.878C297.575 262.521 298.418 263.219 299.152 263.97L296.087 268.075C295.89 268.326 295.657 268.558 295.389 268.774C295.12 268.969 294.743 269.069 294.257 269.069C293.936 269.069 293.631 268.997 293.342 268.853C293.054 268.71 292.753 268.542 292.428 268.342C292.107 268.127 291.746 267.903 291.352 267.671C290.975 267.42 290.518 267.196 289.98 267.001C289.459 266.785 288.841 266.605 288.127 266.466C287.429 266.322 286.602 266.25 285.655 266.25C284.151 266.25 282.771 266.526 281.515 267.081C280.279 267.636 279.204 268.45 278.289 269.52C277.395 270.574 276.693 271.88 276.191 273.437C275.706 274.975 275.465 276.736 275.465 278.72C275.465 280.705 275.734 282.501 276.271 284.055C276.825 285.608 277.571 286.926 278.502 287.996C279.453 289.05 280.552 289.856 281.808 290.407C283.064 290.958 284.408 291.238 285.84 291.238C286.662 291.238 287.417 291.202 288.099 291.13C288.781 291.042 289.415 290.907 290.008 290.727C290.598 290.531 291.156 290.28 291.673 289.976C292.195 289.653 292.721 289.253 293.258 288.77C293.475 288.591 293.708 288.447 293.956 288.343C294.209 288.219 294.466 288.155 294.735 288.155L294.743 288.147Z" fill="white"/>
</g>
<path id="Vector_8" d="M110.592 325.513C110.73 325.513 110.852 325.568 110.963 325.675L111.965 326.765C111.408 327.452 110.726 327.982 109.909 328.349C109.1 328.717 108.129 328.898 106.993 328.898C105.975 328.898 105.059 328.725 104.246 328.377C103.437 328.029 102.747 327.547 102.17 326.927C101.594 326.307 101.152 325.568 100.844 324.707C100.541 323.846 100.391 322.909 100.391 321.89C100.391 320.871 100.556 319.919 100.884 319.066C101.211 318.204 101.673 317.466 102.265 316.845C102.865 316.225 103.579 315.747 104.404 315.403C105.233 315.056 106.148 314.882 107.151 314.882C108.153 314.882 109.033 315.048 109.802 315.376C110.58 315.704 111.239 316.134 111.783 316.664L110.931 317.849C110.88 317.924 110.813 317.991 110.734 318.046C110.659 318.102 110.552 318.133 110.41 318.133C110.315 318.133 110.217 318.11 110.118 318.058C110.015 318.003 109.905 317.936 109.787 317.861C109.668 317.778 109.526 317.691 109.368 317.596C109.21 317.501 109.029 317.414 108.82 317.339C108.611 317.256 108.37 317.189 108.09 317.142C107.817 317.086 107.502 317.055 107.143 317.055C106.531 317.055 105.967 317.165 105.458 317.387C104.952 317.6 104.518 317.916 104.151 318.335C103.784 318.746 103.5 319.251 103.299 319.852C103.098 320.444 102.995 321.124 102.995 321.89C102.995 322.657 103.102 323.348 103.319 323.948C103.54 324.549 103.836 325.055 104.211 325.465C104.585 325.876 105.023 326.192 105.529 326.413C106.034 326.627 106.578 326.737 107.158 326.737C107.506 326.737 107.817 326.718 108.098 326.682C108.382 326.643 108.642 326.583 108.875 326.5C109.116 326.417 109.341 326.315 109.546 326.188C109.759 326.054 109.972 325.896 110.181 325.706C110.244 325.651 110.311 325.604 110.379 325.572C110.45 325.533 110.521 325.517 110.596 325.517L110.592 325.513ZM117.438 318.868C118.157 318.868 118.812 318.987 119.4 319.22C119.992 319.453 120.497 319.785 120.915 320.215C121.337 320.646 121.665 321.171 121.89 321.787C122.119 322.408 122.229 323.099 122.229 323.865C122.229 324.632 122.115 325.331 121.89 325.951C121.661 326.571 121.337 327.097 120.915 327.535C120.497 327.97 119.992 328.306 119.4 328.539C118.812 328.772 118.16 328.89 117.438 328.89C116.716 328.89 116.053 328.772 115.457 328.539C114.861 328.306 114.356 327.97 113.934 327.535C113.516 327.101 113.192 326.571 112.959 325.951C112.73 325.331 112.62 324.636 112.62 323.865C112.62 323.095 112.734 322.408 112.959 321.787C113.192 321.167 113.52 320.642 113.934 320.215C114.356 319.785 114.865 319.453 115.457 319.22C116.049 318.987 116.712 318.868 117.438 318.868ZM117.438 327.089C118.247 327.089 118.843 326.816 119.23 326.275C119.621 325.73 119.818 324.936 119.818 323.885C119.818 322.834 119.621 322.036 119.23 321.487C118.843 320.938 118.247 320.662 117.438 320.662C116.629 320.662 116.01 320.938 115.611 321.495C115.221 322.044 115.023 322.842 115.023 323.885C115.023 324.928 115.221 325.726 115.611 326.275C116.01 326.82 116.618 327.089 117.438 327.089ZM126.203 320.215C126.4 320.018 126.605 319.84 126.819 319.674C127.04 319.504 127.268 319.362 127.509 319.247C127.754 319.129 128.018 319.034 128.294 318.971C128.571 318.9 128.875 318.868 129.202 318.868C129.731 318.868 130.204 318.959 130.615 319.145C131.025 319.322 131.365 319.575 131.637 319.903C131.913 320.227 132.122 320.614 132.26 321.068C132.406 321.519 132.477 322.013 132.477 322.558V328.748H130.137V322.558C130.137 321.965 130.003 321.507 129.731 321.183C129.459 320.855 129.044 320.689 128.492 320.689C128.089 320.689 127.71 320.78 127.355 320.966C127 321.147 126.669 321.4 126.353 321.716V328.752H124.013V319.026H125.441C125.745 319.026 125.942 319.168 126.037 319.453L126.199 320.219L126.203 320.215ZM136.893 320.215C137.091 320.018 137.296 319.84 137.509 319.674C137.73 319.504 137.959 319.362 138.199 319.247C138.444 319.129 138.709 319.034 138.985 318.971C139.261 318.9 139.565 318.868 139.892 318.868C140.421 318.868 140.895 318.959 141.305 319.145C141.716 319.322 142.055 319.575 142.327 319.903C142.603 320.227 142.813 320.614 142.951 321.068C143.097 321.519 143.168 322.013 143.168 322.558V328.748H140.828V322.558C140.828 321.965 140.693 321.507 140.421 321.183C140.149 320.855 139.735 320.689 139.182 320.689C138.78 320.689 138.401 320.78 138.046 320.966C137.69 321.147 137.359 321.4 137.043 321.716V328.752H134.703V319.026H136.132C136.435 319.026 136.633 319.168 136.728 319.453L136.889 320.219L136.893 320.215ZM151.656 322.767C151.656 322.463 151.613 322.179 151.522 321.914C151.439 321.641 151.313 321.404 151.143 321.203C150.973 321.001 150.756 320.843 150.488 320.729C150.228 320.61 149.928 320.547 149.58 320.547C148.906 320.547 148.373 320.741 147.978 321.124C147.591 321.511 147.347 322.056 147.24 322.763H151.652L151.656 322.767ZM147.197 324.181C147.236 324.679 147.323 325.114 147.461 325.481C147.599 325.841 147.785 326.141 148.01 326.382C148.239 326.615 148.507 326.793 148.815 326.911C149.131 327.026 149.478 327.081 149.857 327.081C150.235 327.081 150.559 327.038 150.831 326.947C151.108 326.86 151.348 326.761 151.55 326.654C151.759 326.548 151.936 326.449 152.09 326.362C152.248 326.275 152.398 326.228 152.544 326.228C152.741 326.228 152.883 326.299 152.978 326.445L153.649 327.298C153.388 327.603 153.1 327.859 152.777 328.065C152.453 328.266 152.118 328.432 151.763 328.559C151.415 328.677 151.06 328.764 150.693 328.815C150.334 328.867 149.983 328.89 149.644 328.89C148.969 328.89 148.341 328.78 147.757 328.559C147.177 328.329 146.672 327.998 146.242 327.563C145.812 327.121 145.476 326.575 145.228 325.932C144.983 325.28 144.857 324.529 144.857 323.676C144.857 323.012 144.963 322.388 145.18 321.807C145.393 321.219 145.701 320.709 146.1 320.282C146.502 319.848 146.992 319.5 147.568 319.247C148.148 318.994 148.803 318.868 149.529 318.868C150.141 318.868 150.705 318.967 151.226 319.16C151.743 319.358 152.189 319.642 152.56 320.022C152.931 320.393 153.223 320.855 153.432 321.404C153.645 321.949 153.755 322.57 153.755 323.273C153.755 323.628 153.716 323.865 153.641 323.992C153.566 324.11 153.42 324.174 153.207 324.174H147.193L147.197 324.181ZM162.477 321.08C162.406 321.167 162.339 321.238 162.268 321.29C162.204 321.341 162.11 321.365 161.983 321.365C161.857 321.365 161.747 321.329 161.632 321.262C161.518 321.187 161.384 321.104 161.226 321.017C161.068 320.922 160.878 320.839 160.657 320.772C160.444 320.697 160.176 320.658 159.852 320.658C159.442 320.658 159.083 320.733 158.771 320.887C158.463 321.033 158.203 321.242 157.994 321.523C157.792 321.799 157.639 322.139 157.54 322.538C157.437 322.929 157.39 323.376 157.39 323.873C157.39 324.371 157.445 324.853 157.552 325.256C157.666 325.659 157.828 326.003 158.033 326.279C158.242 326.552 158.495 326.761 158.791 326.903C159.087 327.042 159.422 327.113 159.793 327.113C160.164 327.113 160.464 327.069 160.693 326.978C160.926 326.884 161.123 326.781 161.281 326.674C161.439 326.56 161.573 326.461 161.687 326.37C161.806 326.275 161.94 326.228 162.086 326.228C162.275 326.228 162.417 326.299 162.512 326.445L163.183 327.298C162.923 327.603 162.642 327.859 162.339 328.065C162.035 328.266 161.719 328.432 161.391 328.559C161.068 328.677 160.736 328.764 160.389 328.815C160.05 328.867 159.706 328.89 159.367 328.89C158.767 328.89 158.203 328.78 157.67 328.559C157.141 328.329 156.676 328.002 156.277 327.571C155.879 327.14 155.563 326.615 155.33 325.999C155.101 325.374 154.991 324.663 154.991 323.865C154.991 323.15 155.093 322.491 155.295 321.882C155.504 321.27 155.808 320.741 156.202 320.298C156.601 319.848 157.094 319.5 157.678 319.247C158.266 318.994 158.941 318.868 159.706 318.868C160.472 318.868 161.068 318.987 161.608 319.22C162.157 319.453 162.65 319.788 163.084 320.223L162.469 321.076L162.477 321.08ZM167.895 328.902C167.05 328.902 166.399 328.665 165.945 328.191C165.496 327.709 165.275 327.05 165.275 326.208V320.776H164.28C164.154 320.776 164.047 320.737 163.956 320.654C163.87 320.571 163.822 320.448 163.822 320.282V319.354L165.385 319.097L165.878 316.442C165.91 316.316 165.969 316.217 166.06 316.15C166.147 316.079 166.261 316.047 166.399 316.047H167.611V319.109H170.207V320.776H167.611V326.046C167.611 326.35 167.682 326.587 167.828 326.757C167.978 326.927 168.183 327.014 168.443 327.014C168.589 327.014 168.708 326.998 168.802 326.967C168.905 326.927 168.988 326.891 169.059 326.852C169.134 326.812 169.201 326.781 169.256 326.749C169.312 326.71 169.371 326.694 169.426 326.694C169.497 326.694 169.552 326.714 169.596 326.749C169.639 326.781 169.686 326.832 169.738 326.899L170.44 328.037C170.101 328.322 169.706 328.535 169.264 328.681C168.822 328.827 168.364 328.898 167.891 328.898L167.895 328.902ZM176.233 322.048H181.138V324H176.233V322.048ZM193.474 326.761C193.948 326.761 194.346 326.706 194.666 326.591C194.99 326.477 195.242 326.327 195.432 326.137C195.629 325.947 195.767 325.726 195.85 325.473C195.937 325.22 195.984 324.952 195.984 324.667C195.984 324.383 195.937 324.106 195.842 323.869C195.747 323.628 195.597 323.427 195.396 323.261C195.195 323.091 194.93 322.961 194.611 322.874C194.295 322.787 193.912 322.74 193.466 322.74H190.901V326.761H193.478H193.474ZM190.897 317.015V320.978H192.926C193.798 320.978 194.453 320.82 194.895 320.504C195.345 320.187 195.566 319.686 195.566 318.994C195.566 318.303 195.365 317.77 194.958 317.47C194.556 317.165 193.924 317.015 193.064 317.015H190.893H190.897ZM193.068 315.044C193.964 315.044 194.733 315.131 195.368 315.301C196.004 315.471 196.529 315.716 196.931 316.032C197.342 316.348 197.642 316.731 197.831 317.177C198.02 317.624 198.115 318.133 198.115 318.694C198.115 319.018 198.068 319.326 197.973 319.623C197.878 319.915 197.728 320.187 197.527 320.448C197.33 320.701 197.077 320.93 196.769 321.14C196.466 321.349 196.102 321.527 195.68 321.669C197.563 322.092 198.502 323.111 198.502 324.723C198.502 325.303 198.391 325.841 198.17 326.334C197.949 326.828 197.626 327.255 197.203 327.614C196.781 327.97 196.26 328.247 195.641 328.448C195.021 328.649 194.315 328.752 193.518 328.752H188.348V315.044H193.064H193.068ZM208.655 319.026V328.752H207.227C206.919 328.752 206.722 328.61 206.639 328.326L206.477 327.547C206.079 327.95 205.641 328.282 205.159 328.535C204.678 328.78 204.113 328.906 203.462 328.906C202.933 328.906 202.46 328.819 202.049 328.642C201.647 328.46 201.304 328.203 201.027 327.875C200.751 327.547 200.538 327.156 200.392 326.71C200.254 326.255 200.183 325.754 200.183 325.213V319.03H202.523V325.213C202.523 325.805 202.657 326.267 202.929 326.595C203.206 326.919 203.62 327.077 204.169 327.077C204.571 327.077 204.95 326.99 205.305 326.812C205.66 326.631 205.992 326.378 206.307 326.062V319.026H208.648H208.655ZM213.399 319.026V328.752H211.051V319.026H213.399ZM213.722 316.19C213.722 316.391 213.683 316.581 213.6 316.758C213.517 316.936 213.407 317.09 213.269 317.225C213.134 317.359 212.977 317.466 212.795 317.549C212.614 317.624 212.416 317.663 212.207 317.663C211.998 317.663 211.812 317.624 211.631 317.549C211.453 317.466 211.299 317.359 211.165 317.225C211.031 317.09 210.925 316.936 210.842 316.758C210.767 316.581 210.727 316.391 210.727 316.19C210.727 315.988 210.767 315.787 210.842 315.601C210.925 315.419 211.031 315.261 211.165 315.127C211.299 314.993 211.453 314.89 211.631 314.815C211.812 314.732 212.006 314.692 212.207 314.692C212.408 314.692 212.61 314.732 212.795 314.815C212.977 314.89 213.134 314.997 213.269 315.127C213.407 315.261 213.517 315.419 213.6 315.601C213.683 315.783 213.722 315.98 213.722 316.19ZM218.154 314.665V328.752H215.814V314.665H218.154ZM226.583 321.511C226.319 321.187 226.027 320.962 225.711 320.827C225.403 320.693 225.068 320.63 224.709 320.63C224.35 320.63 224.038 320.697 223.754 320.827C223.47 320.962 223.225 321.163 223.024 321.436C222.822 321.701 222.669 322.044 222.558 322.459C222.451 322.87 222.396 323.356 222.396 323.921C222.396 324.486 222.44 324.972 222.53 325.371C222.625 325.762 222.759 326.086 222.929 326.338C223.099 326.583 223.308 326.765 223.552 326.88C223.797 326.986 224.073 327.042 224.377 327.042C224.863 327.042 225.277 326.939 225.616 326.737C225.956 326.536 226.279 326.248 226.583 325.876V321.515V321.511ZM228.923 314.665V328.752H227.495C227.187 328.752 226.99 328.61 226.907 328.326L226.709 327.385C226.319 327.836 225.865 328.199 225.356 328.476C224.851 328.752 224.259 328.894 223.584 328.894C223.055 328.894 222.566 328.784 222.124 328.563C221.682 328.341 221.299 328.021 220.98 327.607C220.664 327.184 220.419 326.662 220.242 326.042C220.072 325.422 219.985 324.715 219.985 323.917C219.985 323.198 220.084 322.526 220.277 321.906C220.474 321.286 220.755 320.748 221.122 320.294C221.489 319.84 221.927 319.484 222.44 319.231C222.953 318.971 223.525 318.844 224.164 318.844C224.709 318.844 225.17 318.931 225.557 319.101C225.944 319.271 226.287 319.504 226.591 319.792V314.665H228.931H228.923ZM235.762 322.052H240.667V324.004H235.762V322.052ZM257.447 317.142H253.319V328.756H250.77V317.142H246.642V315.048H257.447V317.142ZM261.042 320.073C261.42 319.717 261.839 319.433 262.293 319.212C262.746 318.99 263.279 318.88 263.895 318.88C264.424 318.88 264.897 318.971 265.308 319.156C265.718 319.334 266.057 319.587 266.33 319.915C266.606 320.239 266.815 320.626 266.953 321.08C267.099 321.531 267.17 322.024 267.17 322.57V328.76H264.83V322.57C264.83 321.977 264.696 321.519 264.424 321.195C264.151 320.867 263.737 320.701 263.184 320.701C262.782 320.701 262.403 320.792 262.048 320.978C261.693 321.159 261.361 321.412 261.046 321.728V328.764H258.705V314.677H261.046V320.081L261.042 320.073ZM271.602 320.717C271.906 320.136 272.265 319.682 272.683 319.35C273.101 319.014 273.591 318.848 274.159 318.848C274.609 318.848 274.968 318.947 275.24 319.141L275.09 320.895C275.059 321.009 275.011 321.092 274.948 321.14C274.893 321.183 274.814 321.207 274.711 321.207C274.617 321.207 274.475 321.191 274.285 321.159C274.104 321.128 273.922 321.112 273.745 321.112C273.484 321.112 273.255 321.151 273.054 321.226C272.853 321.302 272.667 321.412 272.505 321.558C272.348 321.697 272.206 321.866 272.079 322.072C271.961 322.273 271.846 322.506 271.74 322.763V328.756H269.4V319.03H270.773C271.014 319.03 271.18 319.073 271.274 319.164C271.369 319.247 271.432 319.397 271.464 319.619L271.606 320.717H271.602ZM278.886 319.03V328.756H276.538V319.03H278.886ZM279.21 316.194C279.21 316.395 279.171 316.585 279.088 316.762C279.005 316.94 278.894 317.094 278.756 317.229C278.622 317.363 278.464 317.47 278.283 317.552C278.101 317.628 277.904 317.667 277.695 317.667C277.486 317.667 277.3 317.628 277.119 317.552C276.941 317.47 276.787 317.363 276.653 317.229C276.519 317.094 276.412 316.94 276.329 316.762C276.254 316.585 276.215 316.395 276.215 316.194C276.215 315.992 276.254 315.791 276.329 315.605C276.412 315.423 276.519 315.265 276.653 315.131C276.787 314.997 276.941 314.894 277.119 314.819C277.3 314.736 277.493 314.696 277.695 314.696C277.896 314.696 278.097 314.736 278.283 314.819C278.464 314.894 278.622 315 278.756 315.131C278.894 315.265 279.005 315.423 279.088 315.605C279.171 315.787 279.21 315.984 279.21 316.194ZM290.035 319.03L286.179 328.756H284.056L280.201 319.03H282.134C282.312 319.03 282.458 319.069 282.568 319.152C282.687 319.235 282.766 319.338 282.805 319.465L284.68 324.659C284.782 324.964 284.869 325.26 284.944 325.552C285.019 325.845 285.086 326.133 285.141 326.425C285.204 326.133 285.275 325.845 285.35 325.552C285.425 325.26 285.516 324.964 285.627 324.659L287.541 319.465C287.584 319.338 287.663 319.235 287.777 319.152C287.892 319.069 288.026 319.03 288.184 319.03H290.031H290.035ZM297.244 322.775C297.244 322.471 297.201 322.186 297.11 321.922C297.027 321.649 296.901 321.412 296.731 321.211C296.562 321.009 296.345 320.851 296.076 320.737C295.816 320.618 295.516 320.555 295.169 320.555C294.494 320.555 293.961 320.748 293.566 321.132C293.18 321.519 292.935 322.064 292.829 322.771H297.24L297.244 322.775ZM292.785 324.189C292.825 324.687 292.911 325.122 293.05 325.489C293.188 325.849 293.373 326.149 293.598 326.39C293.827 326.623 294.095 326.801 294.403 326.919C294.719 327.034 295.066 327.089 295.445 327.089C295.824 327.089 296.147 327.046 296.42 326.955C296.696 326.868 296.937 326.769 297.138 326.662C297.347 326.556 297.525 326.457 297.678 326.37C297.836 326.283 297.986 326.236 298.132 326.236C298.33 326.236 298.472 326.307 298.566 326.453L299.237 327.306C298.977 327.61 298.689 327.867 298.365 328.073C298.042 328.274 297.706 328.44 297.351 328.567C297.004 328.685 296.648 328.772 296.281 328.823C295.922 328.875 295.571 328.898 295.232 328.898C294.557 328.898 293.93 328.788 293.345 328.567C292.765 328.337 292.26 328.006 291.83 327.571C291.4 327.129 291.065 326.583 290.816 325.939C290.571 325.288 290.445 324.537 290.445 323.684C290.445 323.02 290.552 322.396 290.769 321.815C290.982 321.226 291.29 320.717 291.688 320.29C292.091 319.856 292.58 319.508 293.156 319.255C293.736 319.002 294.391 318.876 295.117 318.876C295.729 318.876 296.293 318.975 296.814 319.168C297.331 319.366 297.777 319.65 298.148 320.029C298.519 320.401 298.811 320.863 299.02 321.412C299.233 321.957 299.344 322.578 299.344 323.281C299.344 323.636 299.304 323.873 299.229 324C299.154 324.118 299.008 324.181 298.795 324.181H292.781L292.785 324.189Z" fill="white"/>
</g>
</g>
</g>
</svg>
